<?xml version="1.0" encoding="utf-8"?>
<svg xmlns="http://www.w3.org/2000/svg" viewBox="0 0 1000.7 640.7" fill="#3ecf8e">
  <path d="M280.7 316.7 L276.7 326 L586 513 L722 403 L554 253.7 L523.7 278.7 L576.7 327 L572.7 333.7 L496 394.7 L367 283.7 L550 117 L561.7 122 L858.7 384 L998.7 372 L998.7 380.7 L985.7 435.7 L856.4 426.9 L838.7 442.7 L974.7 485.7 L929.7 528.7 L796.7 475.7 L591.7 640.7 L217.7 414.7 L84 500.7 L53 451.7 L164 392 L173 384.7 L148.4 369.9 L9 393.7 L0 331 L125.4 333.9 L145 304 L7 270.7 L23 209 L171 265 L341.7 5 L398.7 154.7Z"/>
  <path d="M687 129.7 L742 0 L831 256.7Z"/>
  <path d="M989.7 253 L1000.7 321.7 L932.7 340.7 L924 338.7 L878 297.7Z"/>
</svg>
